<svg id="Layer_1" data-name="Layer 1" xmlns="http://www.w3.org/2000/svg" width="1838" height="540" viewBox="0 0 1838 540"><defs><style>.cls-1{fill:#fff;}</style></defs><title>Flyway</title><path class="cls-1" d="M581.4,420.7c-4.9-15.9-4.9-30.9-4.9-46.8V254.8c0-40.3.8-86.2,10.2-125.3,34.6-8.5,74-8.9,115.1-8.9h90.3a106.5,106.5,0,0,1,2,18.7,119.6,119.6,0,0,1-2,18.7c-12.7,4.1-25.3,4.1-38.3,4.1h-50c-26.8,0-50.4,0-73.6,4.8-3.2,24.8-4.1,54.5-4.1,87.9h135a72.9,72.9,0,0,1,2.1,18.3,86.5,86.5,0,0,1-2.1,19.5c-13,4.1-25.2,4.1-39,4.1h-96V420.3a108.7,108.7,0,0,1-21.9,2A165.2,165.2,0,0,1,581.4,420.7Z"/><path class="cls-1" d="M823.8,420.3c-2.1-13.9-2.5-27.7-2.5-41.5V162.5c0-14.3,0-28.5,4.5-42.3a83.3,83.3,0,0,1,19.1-2.1,82.4,82.4,0,0,1,18.7,2.1c4.1,13.8,4.1,28.4,4.1,42.7V378.4c0,13.4.4,26-2.5,41.9a79.8,79.8,0,0,1-19.9,2.4A95.7,95.7,0,0,1,823.8,420.3Z"/><path class="cls-1" d="M914.4,506.5l41.1-94L897.8,272.7c-6.5-16.3-16.3-38.7-16.7-56.6a89.9,89.9,0,0,1,23.2-2.8,94.2,94.2,0,0,1,21.9,2.4l54.5,141.9,29.3-64.2c9.4-20.7,22-55.3,28.1-77.7a107.1,107.1,0,0,1,45.1,0c-2.8,26.1-17.5,56.6-32.5,90.7l-87,200.1a119.9,119.9,0,0,1-24,2.4A135.5,135.5,0,0,1,914.4,506.5Z"/><path class="cls-1" d="M1142.6,420.3l-41.9-157c-4.9-17.9-9.4-34.2-10.2-47.2a114.1,114.1,0,0,1,48.4-.4l36.6,157,57.3-155.3a79.1,79.1,0,0,1,18.7-2.1,88.9,88.9,0,0,1,20,2.1l57.3,155.3,36.6-157a107.6,107.6,0,0,1,22.8-2.4,114,114,0,0,1,25.6,2.8c-1.2,15.1-5.3,30.9-9.8,47.6l-40.6,156.6c-11.4,2.8-20,4-28.1,4s-17.5-1.2-30.1-4l-52.8-141.1-51.7,141.1c-11.8,2.8-19.9,4-28.4,4S1155.2,423.1,1142.6,420.3Z"/><path class="cls-1" d="M1432.9,354V338.1c0-30.9,1.2-79.7,14.2-110.6,30.1-14.6,55.8-21.1,80.2-21.1,52.4,0,93.9,13.8,93.9,71.5v85.8a470.7,470.7,0,0,1-3.3,56.6,65.1,65.1,0,0,1-17,2.4,97.4,97.4,0,0,1-20-2.4l-3.6-20c-14.7,15.1-40.7,24.4-67.9,24.4S1432.9,412.9,1432.9,354Zm141.5,10.2V257.6c-9.3-7.7-28.4-11.4-47.6-11.4s-38.6,3.7-47.9,11.4V372.3c10.1,8.1,23.5,11.8,37.4,11.8C1536.6,384.1,1558.6,376.4,1574.4,364.2Z"/><path class="cls-1" d="M1669.2,506.5l41-94-57.7-139.8c-6.5-16.3-16.3-38.7-16.7-56.6a89.9,89.9,0,0,1,23.2-2.8,95.1,95.1,0,0,1,22,2.4l54.4,141.9,29.3-64.2c9.4-20.7,22-55.3,28.1-77.7a101.6,101.6,0,0,1,22.8-2.4,100.3,100.3,0,0,1,22.3,2.4c-2.8,26.1-17.5,56.6-32.5,90.7l-87,200.1a119.9,119.9,0,0,1-24,2.4A133.6,133.6,0,0,1,1669.2,506.5Z"/><path class="cls-1" d="M121.3,378a60.5,60.5,0,0,0,9.6-28.6l-45,9.2a22.2,22.2,0,0,1-5.1.6,25.3,25.3,0,0,1-5.1-50.1l102.2-21a60.5,60.5,0,0,0,38.4-26,59.8,59.8,0,0,0,9.8-29l-45.2,9.3a22.1,22.1,0,0,1-5.1.5A25.3,25.3,0,0,1,151,222.5c-2.7-13.7,6.6-27,20.3-29.8L272.1,172c19.7-4,31.3-20.1,36.4-29.4a78.9,78.9,0,0,0,9.1-26.4L.2,181.4V421.3l81.5-16.7C97.8,401.2,112.3,391.9,121.3,378Z"/><path class="cls-1" d="M202.6,0C113.8,0,36.2,18,.2,43.9v85.8L348.3,58.2a13.7,13.7,0,0,1,16.2,10.7l2.3,11.3c5.9,28.6.8,60.3-14,87-16.2,29.1-41.2,48.4-70.5,54.4l-5.6,1.1a109.5,109.5,0,0,1-19,68.4c-16.4,24.4-42.1,40.9-70.9,46.8l-5.3,1.1A111.2,111.2,0,0,1,92.8,453.9L.2,473v23c36,25.8,113.6,43.8,202.4,43.8S369.1,521.8,405,496V43.9C369.1,18,291.5,0,202.6,0Z"/></svg>