<svg id="Layer_1" data-name="Layer 1" xmlns="http://www.w3.org/2000/svg" width="405" height="540" viewBox="0 0 405 540"><defs><style>.cls-1{fill:#c00;}</style></defs><title>Flyway</title><path class="cls-1" d="M121.1,378.1a60.7,60.7,0,0,0,9.7-28.6l-45,9.3a31.5,31.5,0,0,1-5.2.5,25.3,25.3,0,0,1-5-50.1l102.2-21a60.4,60.4,0,0,0,48.2-55l-45.2,9.3a29.4,29.4,0,0,1-5.1.5,25.3,25.3,0,0,1-24.8-20.4c-2.7-13.8,6.6-27,20.3-29.8l100.9-20.7c19.7-4.1,31.2-20.2,36.4-29.4a80.8,80.8,0,0,0,9-26.5L0,181.4v240l81.5-16.7A61.6,61.6,0,0,0,121.1,378.1Z"/><path class="cls-1" d="M202.5,0C113.6,0,36,18,0,43.9v85.8L348.3,58.2a13.8,13.8,0,0,1,16.2,10.7l2.3,11.3c5.9,28.6.7,60.3-14.1,87-16.1,29.1-41.2,48.4-70.5,54.5l-5.5,1.1a110.3,110.3,0,0,1-19.1,68.4c-16.4,24.3-42.1,40.9-70.9,46.8l-5.3,1.1a110.3,110.3,0,0,1-18.2,67.2,110.8,110.8,0,0,1-70.5,47.8L0,473.1v23C36,522,113.6,540,202.5,540S369,522,405,496.1V43.9C369,18,291.4,0,202.5,0Z"/></svg>