<svg id="Layer_1" data-name="Layer 1" xmlns="http://www.w3.org/2000/svg" viewBox="0 0 258 190"><title>akka-icon-reverse</title><g id="akka-icon-reverse"><path d="M210.52,172.82c35.88,28.67,58.91-57,1.75-72.82-48-13.29-96.34,9.5-144.66,62.74C67.61,162.74,156.93,130,210.52,172.82Z" style="fill:#fff;opacity:0.5"/><path d="M68.35,162c34.41-35.69,91.64-75.53,144.9-60.75a46.09,46.09,0,0,1,26.92,19.35L189.75,18.78c-7.2-11.46-25.58-9.15-36-.26L20.56,130.07A27.4,27.4,0,0,0,19,170.22l0,0a27.4,27.4,0,0,0,36.51,2L68.4,162Z" style="fill:#fff"/></g></svg>