<svg id="Layer_1" data-name="Layer 1" xmlns="http://www.w3.org/2000/svg" viewBox="0 0 160 265"><title>play-icon-reverse</title><path d="M67.77,148.62,16.61,210A23,23,0,0,0,18,241l6.17,6.16a23,23,0,0,0,33.49-1l18.51-21a101.67,101.67,0,0,0,10.88-45.91A101.59,101.59,0,0,0,70.84,124,23,23,0,0,1,67.77,148.62Z" style="fill:#fff;opacity:0.5"/><path d="M143.17,149.19a23,23,0,0,0,.21-30.17L57.61,19a23,23,0,0,0-33.68-1.31l-6.18,6.17A23,23,0,0,0,16,54.51l52,65A23.19,23.19,0,0,1,71,124.31c0-.11-.09-.22-.15-.34a101.59,101.59,0,0,1,16.22,55.24,101.67,101.67,0,0,1-10.88,45.91Z" style="fill:#fff"/></svg>