<svg id="Layer_3" data-name="Layer 3" xmlns="http://www.w3.org/2000/svg" viewBox="0 0 257.33 147.83"><title>sbt-reverse</title><path d="M17.42,106.46l-13.25,12s6.5,8.12,15.12,13,13.38,4.51,23.07,4.38c9.31,0,18.81-1.76,26.43-8.51s9.07-8.6,9-17.11c0-4-1.07-12.81-5.9-18.51-5.47-6.45-14.78-9.57-14.78-9.57S28.61,75,31.54,65.08c1.23-4.15,7.82-5.72,14.29-4.58,8.2,1.44,16.48,6.37,16.48,6.37L73.88,55.54A46.11,46.11,0,0,0,60.42,45.33c-6.07-3-14.43-4.06-19.79-4.07C28,41.21,12.3,52.45,10.42,64.08A22,22,0,0,0,18,85.21C25.92,92.08,31.52,93,31.52,93s25.12,6.47,25.12,14.29S50.54,118,40.79,118.08,17.42,106.46,17.42,106.46Z" style="fill:#fff"/><path d="M198.51,45.48l.2,18.2h10.4l.1,53.9a27.83,27.83,0,0,0,6.5,10.8,29.54,29.54,0,0,0,12.4,7.46h20.4l.1-18.56-11-.1s-2.4.1-5.1-2.5a9,9,0,0,1-2.7-6.2l.2-44.9h20l.1-18.2-20-.1-.2-35.2h-20.8l.2,35.4Z" style="fill:#fff"/><path d="M156.67,49.83c-12.53-2.76-25.25-1.37-33.38,3.38l10.63-43.13L112.73,4.9,82.6,126.33l21,6.07,2.9-11.9c6.17,11.67,13.19,17.28,26.67,20.33,25,5.67,47.31-11.76,53.33-38.66C191.67,79.08,175.92,54.08,156.67,49.83Zm6.09,67.26L132.6,125.4l-22.49-22.78,7.67-31.08,30.16-8.3L170.42,86Z" style="fill:#fff"/></svg>