<svg id="Layer_1" data-name="Layer 1" xmlns="http://www.w3.org/2000/svg" viewBox="0 0 155 234"><title>scala-icon-full-color</title><path d="M10.45,89.83c1.86,2.55,17.5,7.36,40.73,12.37,23.27,4.46,47.46,22.07,66.28,16.64C130.19,115.16,144,82.37,144,77.5V77c0-3.4-2.55-6.13-6.88-8.4C119.37,59.55,116,56.21,109.43,58,75.27,67.43,15,62.61,10.45,89.83Z" style="fill:#380d09;fill-rule:evenodd"/><path d="M10.45,156.41c1.86,2.56,17.5,7.36,40.73,12.38,25.95,4.74,48.61,20.19,67.43,14.75C131.34,179.86,144,149,144,144.08v-.48c0-3.39-2.55-6.13-6.88-8.39-13.54-7.2-31.43-15.13-38-13.32C64.94,131.3,19.17,133.37,10.45,156.41Z" style="fill:#380d09;fill-rule:evenodd"/><path d="M10.26,104.14v.48h.05A2.52,2.52,0,0,1,10.26,104.14Z" style="fill:#555;fill-rule:evenodd"/><path d="M118.56,23.78C87.11,32.87,37.2,38,10.31,38h-.05V89.35a.87.87,0,0,0,.19.48c18.36,0,75-6,109.18-15.4a128.5,128.5,0,0,0,17.49-5.81c4.19-1.88,6.88-3.86,6.88-5.92V10.91C144,15.79,131.29,20.11,118.56,23.78Z" style="fill:#de3423;fill-rule:evenodd"/><path d="M118.56,90.37C99.74,95.8,74.32,99.84,51.18,102.2c-15.55,1.59-30.07,2.42-40.87,2.42h-.05v51.31a.87.87,0,0,0,.19.48c18.36,0,75-6,109.18-15.39a129.9,129.9,0,0,0,17.49-5.81c4.19-1.89,6.88-3.86,6.88-5.92V77.5C144,82.37,131.29,86.69,118.56,90.37Z" style="fill:#de3423;fill-rule:evenodd"/><path d="M118.56,157c-18.82,5.43-44.24,9.46-67.38,11.83-15.57,1.59-30.1,2.42-40.92,2.42V223c18.17,0,75.1-5.95,109.37-15.39,12.63-3.48,24.37-7.44,24.37-11.74V144.08C144,149,131.29,153.28,118.56,157Z" style="fill:#de3423;fill-rule:evenodd"/></svg>