<?xml version="1.0" encoding="UTF-8" standalone="no"?>
<!DOCTYPE svg PUBLIC "-//W3C//DTD SVG 1.1//EN" "http://www.w3.org/Graphics/SVG/1.1/DTD/svg11.dtd">
<svg width="100%" height="100%" viewBox="0 0 300 300" version="1.1" xmlns="http://www.w3.org/2000/svg" xmlns:xlink="http://www.w3.org/1999/xlink" xml:space="preserve" xmlns:serif="http://www.serif.com/" style="fill-rule:evenodd;clip-rule:evenodd;stroke-linejoin:round;stroke-miterlimit:2;">
    <g transform="matrix(1.92512,0,0,1.92512,-70.9903,-102.894)">
        <circle cx="114.793" cy="131.365" r="77.917" style="fill:rgb(21,169,206);"/>
        <clipPath id="_clip1">
            <circle cx="114.793" cy="131.365" r="77.917"/>
        </clipPath>
        <g clip-path="url(#_clip1)">
            <g id="akka-icon-reverse" transform="matrix(0.66063,0,0,0.66063,29.6103,65.2921)">
                <path d="M210.52,172.82C246.4,201.49 269.43,115.82 212.27,100C164.27,86.71 115.93,109.5 67.61,162.74C67.61,162.74 156.93,130 210.52,172.82Z" style="fill:white;fill-opacity:0.5;fill-rule:nonzero;"/>
                <path d="M68.35,162C102.76,126.31 159.99,86.47 213.25,101.25C224.31,104.137 233.909,111.037 240.17,120.6L189.75,18.78C182.55,7.32 164.17,9.63 153.75,18.52L20.56,130.07C14.494,135.273 10.998,142.877 10.998,150.868C10.998,158.121 13.878,165.085 19,170.22C28.832,180.048 44.664,180.915 55.51,172.22L68.4,162L68.35,162Z" style="fill:white;fill-rule:nonzero;"/>
            </g>
        </g>
    </g>
</svg>
