<?xml version="1.0" encoding="UTF-8" standalone="no"?>
<!DOCTYPE svg PUBLIC "-//W3C//DTD SVG 1.1//EN" "http://www.w3.org/Graphics/SVG/1.1/DTD/svg11.dtd">
<svg width="100%" height="100%" viewBox="0 0 300 300" version="1.1" xmlns="http://www.w3.org/2000/svg" xmlns:xlink="http://www.w3.org/1999/xlink" xml:space="preserve" xmlns:serif="http://www.serif.com/" style="fill-rule:evenodd;clip-rule:evenodd;stroke-linejoin:round;stroke-miterlimit:2;">
    <g transform="matrix(1.92512,0,0,1.92512,-70.9903,-102.894)">
        <circle cx="114.793" cy="131.365" r="77.917" style="fill:rgb(204,0,0);"/>
        <clipPath id="_clip1">
            <circle cx="114.793" cy="131.365" r="77.917"/>
        </clipPath>
        <g clip-path="url(#_clip1)">
            <g transform="matrix(0.320647,0,0,0.320647,36.8758,53.448)">
                <path d="M0,495.9C36.4,522 113.3,540 202.5,540C291.7,540 368.6,522 405,495.9L405,44.1C368.6,18 291.7,0 202.5,0C113.3,0 36.4,18 0,44.1L0,495.9Z" style="fill:white;fill-rule:nonzero;"/>
                <path d="M121.1,378.1C126.691,369.537 130.028,359.698 130.8,349.5L85.8,358.8C84.084,359.11 82.344,359.278 80.6,359.3C66.723,359.297 55.305,347.877 55.305,334C55.305,322.002 63.839,311.573 75.6,309.2L177.8,288.2C204.32,282.798 224.125,260.2 226,233.2L180.8,242.5C179.118,242.815 177.411,242.982 175.7,243C163.67,242.99 153.23,234.402 150.9,222.6C148.2,208.8 157.5,195.6 171.2,192.8L272.1,172.1C291.8,168 303.3,151.9 308.5,142.7C313.019,134.458 316.064,125.489 317.5,116.2L0,181.4L0,421.4L81.5,404.7C97.73,401.513 112.012,391.92 121.1,378.1Z" style="fill:rgb(204,0,0);fill-rule:nonzero;"/>
                <path d="M202.5,0C113.6,0 36,18 0,43.9L0,129.7L348.3,58.2C355.672,56.733 362.956,61.544 364.5,68.9L366.8,80.2C372.7,108.8 367.5,140.5 352.7,167.2C336.6,196.3 311.5,215.6 282.2,221.7L276.7,222.8C278.048,247.078 271.331,271.133 257.6,291.2C241.2,315.5 215.5,332.1 186.7,338L181.4,339.1C182.747,362.873 176.36,386.456 163.2,406.3C147.014,430.981 121.619,448.199 92.7,454.1L0,473.1L0,496.1C36,522 113.6,540 202.5,540C291.4,540 369,522 405,496.1L405,43.9C369,18 291.4,0 202.5,0Z" style="fill:rgb(204,0,0);fill-rule:nonzero;"/>
            </g>
        </g>
    </g>
</svg>
