<?xml version="1.0" encoding="UTF-8" standalone="no"?>
<!DOCTYPE svg PUBLIC "-//W3C//DTD SVG 1.1//EN" "http://www.w3.org/Graphics/SVG/1.1/DTD/svg11.dtd">
<svg width="100%" height="100%" viewBox="0 0 300 300" version="1.1" xmlns="http://www.w3.org/2000/svg" xmlns:xlink="http://www.w3.org/1999/xlink" xml:space="preserve" xmlns:serif="http://www.serif.com/" style="fill-rule:evenodd;clip-rule:evenodd;stroke-linejoin:round;stroke-miterlimit:2;">
    <g transform="matrix(1.92512,0,0,1.92512,-70.9903,-102.894)">
        <circle cx="114.793" cy="131.365" r="77.917" style="fill:rgb(240,81,51);"/>
        <clipPath id="_clip1">
            <circle cx="114.793" cy="131.365" r="77.917"/>
        </clipPath>
        <g clip-path="url(#_clip1)">
            <g transform="matrix(1.13061,0,0,1.13061,62.8487,79.2906)">
                <path d="M90.154,41.965L50.035,1.848C47.725,-0.463 43.978,-0.463 41.666,1.848L33.335,10.179L43.903,20.747C46.359,19.917 49.175,20.474 51.132,22.432C53.101,24.401 53.653,27.242 52.802,29.707L62.988,39.891C65.453,39.042 68.294,39.591 70.263,41.562C73.013,44.312 73.013,48.768 70.263,51.52C67.511,54.271 63.055,54.271 60.302,51.52C58.234,49.449 57.722,46.41 58.771,43.861L49.271,34.362L49.271,59.359C49.941,59.691 50.574,60.133 51.132,60.691C53.882,63.44 53.882,67.896 51.132,70.65C48.382,73.399 43.923,73.399 41.175,70.65C38.425,67.896 38.425,63.44 41.175,60.691C41.855,60.011 42.642,59.498 43.482,59.154L43.482,33.926C42.642,33.582 41.857,33.073 41.175,32.389C39.092,30.307 38.591,27.25 39.66,24.692L29.242,14.272L1.732,41.779C-0.578,44.092 -0.578,47.839 1.732,50.15L41.853,90.268C44.163,92.578 47.909,92.578 50.222,90.268L90.154,50.337C92.465,48.025 92.465,44.276 90.154,41.965Z" style="fill:white;fill-rule:nonzero;"/>
            </g>
        </g>
    </g>
</svg>
