<?xml version="1.0" encoding="UTF-8" standalone="no"?>
<!DOCTYPE svg PUBLIC "-//W3C//DTD SVG 1.1//EN" "http://www.w3.org/Graphics/SVG/1.1/DTD/svg11.dtd">
<svg width="100%" height="100%" viewBox="0 0 300 300" version="1.1" xmlns="http://www.w3.org/2000/svg" xmlns:xlink="http://www.w3.org/1999/xlink" xml:space="preserve" xmlns:serif="http://www.serif.com/" style="fill-rule:evenodd;clip-rule:evenodd;stroke-linejoin:round;stroke-miterlimit:2;">
    <g transform="matrix(1.92512,0,0,1.92512,-70.9903,-102.894)">
        <circle cx="114.793" cy="131.365" r="77.917" style="fill:rgb(0,118,153);"/>
    </g>
    <g transform="matrix(7.41668,0,0,7.41668,-568.649,-974.714)">
        <g transform="matrix(1,0,0,1,0,-105.992)">
            <path d="M88.138,258.861C88.138,258.023 91.316,257.553 92.796,257.439L92.938,257.521C92.369,257.624 90.088,258.026 90.088,258.551C90.088,259.123 93.586,259.497 95.617,259.497C99.066,259.497 101.41,258.975 102.041,258.803L102.923,259.316C102.319,259.612 99.726,260.387 95.617,260.387C91.051,260.387 88.138,259.494 88.138,258.861M95.097,270.622C93.29,270.638 91.083,270.488 89.227,270.176L89.055,270.275C90.904,270.817 93.478,271.145 96.307,271.12C101.862,271.071 106.365,269.694 106.455,268.036L106.39,267.999C106.018,268.453 103.615,270.548 95.097,270.622M95.57,269.554C100.116,269.515 105.203,268.625 105.19,267.129C105.187,266.858 105.011,266.672 104.857,266.56L104.783,266.603C104.363,267.762 100.81,268.617 95.562,268.663C92.176,268.693 87.485,267.881 87.477,266.944C87.469,266.004 89.699,265.487 89.699,265.487L89.541,265.397C88.047,265.603 85.293,266.319 85.302,267.353C85.315,268.847 91.644,269.588 95.57,269.554M105.812,259.261C105.72,261.015 104.1,262.107 102.48,263.03L102.627,263.115C104.355,262.628 107.439,261.212 107.184,259.036C107.057,257.951 106.065,257.175 104.772,257.175C104.369,257.175 104.011,257.246 103.72,257.335L103.719,257.338L103.658,257.492C104.815,257.266 105.872,258.11 105.812,259.261M92.457,264.473C91.929,264.578 90.779,264.842 90.779,265.401C90.779,266.176 93.239,266.769 95.615,266.769C98.883,266.769 100.221,265.928 100.282,265.884L98.923,265.098C98.345,265.236 97.371,265.452 95.618,265.452C93.661,265.452 92.386,265.117 92.386,264.75C92.386,264.672 92.434,264.58 92.525,264.512L92.457,264.473ZM100.485,261.862C99.734,262.075 98.041,262.422 95.62,262.422C93.244,262.422 91.303,262.015 91.297,261.536C91.293,261.218 91.678,261.079 91.678,261.079L91.61,261.039C90.472,261.24 89.415,261.551 89.421,262.016C89.432,262.861 92.661,263.495 95.615,263.495C98.127,263.495 100.539,263.073 101.627,262.521L100.485,261.862Z" style="fill:white;fill-rule:nonzero;"/>
        </g>
        <g transform="matrix(1,0,0,1,0,-135.048)">
            <path d="M99.838,272.082C99.838,276.738 93.458,278.519 93.458,281.829C93.458,284.153 94.999,285.61 95.851,286.532L95.782,286.572C94.706,285.898 91.874,284.206 91.874,281.411C91.874,277.488 99.202,275.613 99.202,271.156C99.202,270.607 99.121,270.187 99.064,269.96L99.138,269.918C99.37,270.209 99.838,270.939 99.838,272.082M101.936,276.205L101.86,276.161C100.471,276.626 96.197,278.314 96.197,281.459C96.197,283.238 97.934,284.224 97.934,285.892C97.934,286.487 97.598,287.045 97.325,287.379L97.462,287.458C98.185,286.988 99.466,285.97 99.466,284.656C99.466,283.544 97.925,282.207 97.925,280.776C97.925,278.523 100.897,276.754 101.936,276.205" style="fill:rgb(247,144,30);fill-rule:nonzero;"/>
        </g>
    </g>
</svg>
