<?xml version="1.0" encoding="UTF-8" standalone="no"?>
<!DOCTYPE svg PUBLIC "-//W3C//DTD SVG 1.1//EN" "http://www.w3.org/Graphics/SVG/1.1/DTD/svg11.dtd">
<svg width="100%" height="100%" viewBox="0 0 300 300" version="1.1" xmlns="http://www.w3.org/2000/svg" xmlns:xlink="http://www.w3.org/1999/xlink" xml:space="preserve" xmlns:serif="http://www.serif.com/" style="fill-rule:evenodd;clip-rule:evenodd;stroke-linejoin:round;stroke-miterlimit:2;">
    <g transform="matrix(1.92512,0,0,1.92512,-70.9903,-102.894)">
        <circle cx="114.793" cy="131.365" r="77.917" style="fill:rgb(14,105,174);"/>
        <clipPath id="_clip1">
            <circle cx="114.793" cy="131.365" r="77.917"/>
        </clipPath>
        <g clip-path="url(#_clip1)">
            <g transform="matrix(0.519448,0,0,0.519448,59.1036,71.5788)">
                <g transform="matrix(4.16667,0,0,4.16667,0,0)">
                    <path d="M3.27,13.695C-1.287,20.242 -0.723,28.76 2.762,35.717C2.84,35.887 2.93,36.047 3.016,36.211C3.064,36.318 3.12,36.424 3.18,36.529C3.206,36.586 3.247,36.65 3.281,36.706C3.337,36.82 3.396,36.924 3.456,37.033C3.568,37.221 3.68,37.413 3.792,37.6C3.855,37.705 3.916,37.809 3.986,37.914C4.105,38.115 4.244,38.314 4.367,38.516C4.423,38.602 4.475,38.686 4.535,38.77C4.714,39.043 4.894,39.312 5.091,39.576C5.091,39.584 5.099,39.591 5.106,39.595C5.136,39.64 5.169,39.683 5.199,39.724C5.367,39.953 5.535,40.177 5.711,40.399C5.771,40.481 5.837,40.563 5.897,40.644C6.058,40.838 6.215,41.032 6.371,41.224C6.431,41.293 6.491,41.366 6.554,41.437C6.763,41.689 6.983,41.939 7.208,42.186C7.208,42.189 7.215,42.194 7.219,42.2C7.226,42.209 7.233,42.219 7.249,42.228C7.465,42.465 7.685,42.698 7.909,42.93C7.98,43.001 8.051,43.07 8.129,43.145C8.301,43.318 8.473,43.494 8.656,43.665C8.73,43.736 8.805,43.805 8.876,43.874C9.115,44.098 9.354,44.322 9.604,44.537C9.607,44.541 9.611,44.543 9.615,44.546C9.656,44.582 9.701,44.617 9.738,44.652C9.958,44.841 10.179,45.027 10.402,45.212C10.492,45.287 10.582,45.358 10.671,45.431C10.858,45.578 11.044,45.72 11.231,45.862C11.328,45.935 11.425,46.009 11.526,46.086C11.728,46.237 11.937,46.384 12.142,46.53C12.216,46.584 12.291,46.638 12.37,46.688C12.388,46.705 12.411,46.72 12.429,46.735C12.634,46.87 12.829,47 13.03,47.133C13.12,47.19 13.206,47.247 13.292,47.304C13.605,47.504 13.918,47.696 14.229,47.883C14.318,47.93 14.407,47.98 14.493,48.03C14.725,48.165 14.96,48.297 15.199,48.424C15.329,48.497 15.46,48.561 15.594,48.627C15.755,48.715 15.923,48.805 16.095,48.893C16.136,48.909 16.177,48.924 16.214,48.945C16.285,48.977 16.352,49.012 16.419,49.045C16.681,49.174 16.949,49.296 17.226,49.419C17.278,49.443 17.334,49.465 17.39,49.494C17.699,49.628 18.009,49.757 18.327,49.882C18.401,49.91 18.476,49.943 18.554,49.969C18.842,50.082 19.14,50.191 19.435,50.298C19.473,50.313 19.506,50.324 19.543,50.337C19.872,50.449 20.196,50.555 20.529,50.658C20.607,50.681 20.686,50.709 20.768,50.729C21.107,50.832 21.436,50.951 21.783,51.017C43.815,55.033 50.217,37.775 50.217,37.775C44.838,44.775 35.294,46.625 26.254,44.568C25.918,44.492 25.586,44.386 25.247,44.285C25.168,44.262 25.079,44.236 25,44.209C24.672,44.109 24.347,44.003 24.03,43.895C23.985,43.88 23.937,43.863 23.892,43.844C23.605,43.746 23.321,43.637 23.037,43.527C22.959,43.494 22.877,43.465 22.798,43.436C22.484,43.313 22.175,43.18 21.873,43.047C21.805,43.023 21.749,42.995 21.686,42.969C21.421,42.848 21.167,42.729 20.909,42.605C20.831,42.572 20.76,42.534 20.682,42.495C20.48,42.4 20.279,42.293 20.081,42.189C19.943,42.118 19.808,42.053 19.678,41.98C19.435,41.85 19.192,41.711 18.95,41.577C18.875,41.526 18.793,41.483 18.707,41.437C18.394,41.251 18.076,41.058 17.767,40.86C17.677,40.804 17.595,40.748 17.513,40.69C17.285,40.547 17.061,40.396 16.841,40.246C16.77,40.196 16.699,40.144 16.625,40.091C16.412,39.942 16.203,39.791 15.99,39.636C15.9,39.565 15.807,39.494 15.71,39.423C15.52,39.276 15.329,39.13 15.139,38.977C15.057,38.908 14.971,38.841 14.889,38.774C14.643,38.576 14.411,38.378 14.176,38.173C14.153,38.148 14.12,38.128 14.094,38.107C13.844,37.884 13.594,37.654 13.347,37.426C13.272,37.355 13.21,37.29 13.135,37.223C12.956,37.047 12.776,36.876 12.601,36.698C12.526,36.624 12.459,36.555 12.388,36.484C12.164,36.258 11.944,36.025 11.728,35.786C11.716,35.776 11.705,35.766 11.694,35.752C11.466,35.502 11.246,35.249 11.026,34.991C10.966,34.922 10.91,34.851 10.851,34.784C10.69,34.586 10.529,34.386 10.365,34.188C10.313,34.112 10.253,34.039 10.193,33.964C10.003,33.72 9.82,33.476 9.637,33.224C4.621,26.38 2.811,16.935 6.823,9.185" style="fill:white;fill-rule:nonzero;"/>
                </g>
                <g transform="matrix(4.16667,0,0,4.16667,0,0)">
                    <path d="M17.416,8.177C14.112,12.917 14.295,19.264 16.867,24.28C17.293,25.12 17.778,25.936 18.323,26.71C18.815,27.419 19.36,28.259 20.021,28.829C20.252,29.09 20.502,29.344 20.76,29.599C20.824,29.663 20.887,29.725 20.954,29.792C21.201,30.028 21.451,30.262 21.708,30.489C21.716,30.499 21.73,30.508 21.738,30.518C21.742,30.52 21.746,30.523 21.746,30.523C22.033,30.777 22.324,31.018 22.627,31.253C22.697,31.303 22.761,31.359 22.832,31.41C23.13,31.643 23.437,31.867 23.746,32.087C23.757,32.091 23.765,32.098 23.78,32.104C23.914,32.201 24.056,32.291 24.202,32.384C24.265,32.425 24.332,32.473 24.396,32.513C24.623,32.66 24.847,32.798 25.079,32.935C25.112,32.951 25.146,32.97 25.179,32.986C25.374,33.104 25.579,33.22 25.784,33.324C25.855,33.367 25.926,33.401 25.997,33.44C26.139,33.511 26.28,33.585 26.418,33.658C26.437,33.668 26.463,33.679 26.486,33.688C26.777,33.832 27.072,33.964 27.363,34.097C27.434,34.125 27.494,34.149 27.561,34.177C27.8,34.28 28.042,34.381 28.281,34.472C28.389,34.508 28.49,34.55 28.591,34.586C28.811,34.664 29.035,34.741 29.255,34.813C29.363,34.849 29.46,34.879 29.558,34.911C29.871,35.01 30.189,35.137 30.521,35.188C47.526,38.009 51.46,24.909 51.46,24.909C47.918,30.012 41.061,32.441 33.746,30.542C33.417,30.458 33.096,30.364 32.782,30.262C32.682,30.236 32.592,30.204 32.495,30.17C32.268,30.098 32.04,30.021 31.819,29.939C31.719,29.902 31.614,29.864 31.514,29.825C31.271,29.73 31.028,29.637 30.793,29.532C30.722,29.504 30.655,29.48 30.599,29.45C30.297,29.319 29.998,29.179 29.707,29.04C29.558,28.963 29.412,28.888 29.263,28.81C29.173,28.765 29.087,28.722 29.009,28.681C28.811,28.579 28.628,28.47 28.441,28.36C28.397,28.336 28.352,28.313 28.307,28.287C28.08,28.149 27.844,28.011 27.628,27.867C27.553,27.825 27.49,27.776 27.419,27.731C27.27,27.636 27.124,27.541 26.971,27.438C26.661,27.224 26.359,26.996 26.057,26.768C25.985,26.71 25.918,26.658 25.851,26.602C22.641,24.075 20.103,20.619 18.901,16.706C17.632,12.641 17.912,8.078 20.1,4.377" style="fill:white;fill-rule:nonzero;"/>
                </g>
                <g transform="matrix(4.16667,0,0,4.16667,0,0)">
                    <path d="M29.308,4.054C27.359,6.913 27.172,10.465 28.516,13.619C29.942,16.971 32.857,19.6 36.254,20.845C36.392,20.899 36.53,20.944 36.672,20.992C36.735,21.011 36.795,21.031 36.862,21.052C37.06,21.113 37.258,21.188 37.463,21.228C46.857,23.042 49.403,16.407 50.086,15.431C47.851,18.645 44.1,19.415 39.497,18.297C39.135,18.209 38.739,18.079 38.389,17.952C37.941,17.793 37.497,17.609 37.064,17.405C36.254,17.012 35.47,16.538 34.746,15.989C30.625,12.865 28.072,6.906 30.759,2.052" style="fill:white;fill-rule:nonzero;"/>
                </g>
            </g>
        </g>
    </g>
</svg>
