<?xml version="1.0" encoding="UTF-8" standalone="no"?>
<!DOCTYPE svg PUBLIC "-//W3C//DTD SVG 1.1//EN" "http://www.w3.org/Graphics/SVG/1.1/DTD/svg11.dtd">
<svg width="100%" height="100%" viewBox="0 0 300 300" version="1.1" xmlns="http://www.w3.org/2000/svg" xmlns:xlink="http://www.w3.org/1999/xlink" xml:space="preserve" xmlns:serif="http://www.serif.com/" style="fill-rule:evenodd;clip-rule:evenodd;stroke-linejoin:round;stroke-miterlimit:2;">
    <g transform="matrix(1.92512,0,0,1.92512,-70.9903,-102.894)">
        <circle cx="114.793" cy="131.365" r="77.917" style="fill:rgb(169,203,212);"/>
        <clipPath id="_clip1">
            <circle cx="114.793" cy="131.365" r="77.917"/>
        </clipPath>
        <g clip-path="url(#_clip1)">
            <g transform="matrix(0.506462,0,0,0.506462,88.7816,68.1113)">
                <path d="M121.361,138.351C111.633,138.351 102.913,142.66 96.941,149.445L81.639,138.612C83.263,134.14 84.196,129.338 84.196,124.311C84.196,119.372 83.296,114.65 81.725,110.244L96.993,99.526C102.964,106.276 111.662,110.563 121.361,110.563C139.314,110.563 153.923,95.956 153.923,78C153.923,60.044 139.314,45.438 121.361,45.438C103.407,45.438 88.798,60.044 88.798,78C88.798,81.214 89.284,84.313 90.155,87.248L74.877,97.972C68.495,90.054 59.305,84.526 48.835,82.838L48.835,64.425C63.585,61.327 74.699,48.222 74.699,32.563C74.699,14.606 60.09,0 42.136,0C24.183,0 9.574,14.606 9.574,32.563C9.574,48.012 20.4,60.956 34.855,64.275L34.855,82.927C15.127,86.39 0.077,103.606 0.077,124.311C0.077,145.117 15.276,162.397 35.146,165.742L35.146,185.437C20.543,188.647 9.574,201.67 9.574,217.225C9.574,235.181 24.183,249.787 42.136,249.787C60.09,249.787 74.699,235.181 74.699,217.225C74.699,201.67 63.73,188.647 49.127,185.437L49.127,165.741C59.181,164.047 68.284,158.753 74.728,150.852L90.132,161.755C89.277,164.663 88.798,167.732 88.798,170.913C88.798,188.87 103.407,203.476 121.361,203.476C139.314,203.476 153.923,188.87 153.923,170.913C153.923,152.957 139.314,138.351 121.361,138.351ZM121.361,62.212C130.067,62.212 137.148,69.296 137.148,78C137.148,86.704 130.067,93.787 121.361,93.787C112.654,93.787 105.573,86.704 105.573,78C105.573,69.296 112.654,62.212 121.361,62.212ZM26.349,32.563C26.349,23.859 33.43,16.775 42.136,16.775C50.843,16.775 57.924,23.859 57.924,32.563C57.924,41.266 50.843,48.35 42.136,48.35C33.43,48.35 26.349,41.266 26.349,32.563ZM57.924,217.225C57.924,225.928 50.843,233.012 42.136,233.012C33.43,233.012 26.349,225.928 26.349,217.225C26.349,208.521 33.43,201.438 42.136,201.438C50.843,201.438 57.924,208.521 57.924,217.225ZM42.135,146.329C29.993,146.329 20.115,136.453 20.115,124.311C20.115,112.169 29.993,102.291 42.135,102.291C54.277,102.291 64.155,112.169 64.155,124.311C64.155,136.453 54.277,146.329 42.135,146.329ZM121.361,186.701C112.654,186.701 105.573,179.617 105.573,170.913C105.573,162.21 112.654,155.126 121.361,155.126C130.067,155.126 137.148,162.21 137.148,170.913C137.148,179.617 130.067,186.701 121.361,186.701Z" style="fill-rule:nonzero;"/>
            </g>
        </g>
    </g>
</svg>
