<?xml version="1.0" encoding="UTF-8" standalone="no"?>
<!DOCTYPE svg PUBLIC "-//W3C//DTD SVG 1.1//EN" "http://www.w3.org/Graphics/SVG/1.1/DTD/svg11.dtd">
<svg width="100%" height="100%" viewBox="0 0 300 300" version="1.1" xmlns="http://www.w3.org/2000/svg" xmlns:xlink="http://www.w3.org/1999/xlink" xml:space="preserve" xmlns:serif="http://www.serif.com/" style="fill-rule:evenodd;clip-rule:evenodd;stroke-linejoin:round;stroke-miterlimit:2;">
    <g transform="matrix(1.92512,0,0,1.92512,-70.9903,-102.894)">
        <circle cx="114.793" cy="131.365" r="77.917" style="fill:rgb(6,124,172);"/>
        <clipPath id="_clip1">
            <circle cx="114.793" cy="131.365" r="77.917"/>
        </clipPath>
        <g clip-path="url(#_clip1)">
            <g transform="matrix(0.105458,0,0,0.105458,98.9742,118.525)">
                <g transform="matrix(4.16667,0,0,4.16667,-9053.35,-955.042)">
                    <path d="M2099.13,161.539C2098.83,166.877 2098.68,172.089 2098.68,177.043C2098.68,232.518 2106.39,272.045 2123.69,305.209C2140.19,336.841 2166.46,364.232 2208.8,393.957C2287.01,339.003 2318.92,276.106 2318.92,177.043C2318.92,172.105 2318.78,167.073 2318.48,161.683C2284.17,143.763 2247.22,134.677 2208.66,134.677C2170.21,134.677 2133.36,143.715 2099.13,161.539ZM2208.8,403.835L2204.77,401.015C2160.94,370.339 2133.73,341.947 2116.52,308.953C2098.58,274.572 2090.59,233.89 2090.59,177.043C2090.59,171.749 2090.75,166.173 2091.08,160.473L2091.31,156.498L2094.84,154.648C2130.39,136.026 2168.69,126.585 2208.66,126.585C2248.75,126.585 2287.14,136.076 2322.78,154.795L2326.3,156.649L2326.53,160.624C2326.86,166.397 2327.02,171.767 2327.02,177.043C2327.02,279.353 2293.94,344.242 2212.83,401.014L2208.8,403.835Z" style="fill:white;fill-rule:nonzero;"/>
                </g>
                <g transform="matrix(4.16667,0,0,4.16667,-9053.35,-955.042)">
                    <path d="M2276.45,236.086C2266.41,259.429 2254.96,269.109 2243.81,292.192C2222.87,335.481 2208.59,359.617 2208.59,359.617C2208.59,359.617 2195.05,335.111 2173.38,292.192C2161.28,268.231 2150.76,259.429 2140.73,236.086C2138.36,230.586 2140.91,224.202 2146.41,221.838C2151.91,219.473 2157.68,222.322 2160.65,227.518C2177.11,256.263 2197.29,262.769 2208.59,262.769C2219.89,262.769 2240.07,256.263 2256.53,227.518C2259.5,222.322 2265.27,219.473 2270.77,221.838C2276.27,224.202 2278.82,230.586 2276.45,236.086ZM2206.15,186.493C2218.06,185.923 2228.3,197.888 2229.02,213.217C2229.76,228.557 2220.7,241.445 2208.79,242.008C2196.88,242.578 2186.63,230.605 2185.9,215.277C2185.17,199.944 2194.23,187.052 2206.15,186.493ZM2309.8,168.895C2279.43,152.94 2245.18,143.954 2208.93,143.954C2172.78,143.954 2138.62,152.887 2108.31,168.764C2108.03,173.631 2107.87,178.537 2107.87,183.474C2107.87,282.664 2135.14,330.324 2209.05,382.063C2280.35,332.155 2310.24,274.515 2310.24,183.474C2310.24,178.58 2310.08,173.718 2309.8,168.895Z" style="fill:white;fill-rule:nonzero;"/>
                </g>
            </g>
        </g>
    </g>
</svg>
