<?xml version="1.0" encoding="UTF-8" standalone="no"?>
<!DOCTYPE svg PUBLIC "-//W3C//DTD SVG 1.1//EN" "http://www.w3.org/Graphics/SVG/1.1/DTD/svg11.dtd">
<svg width="100%" height="100%" viewBox="0 0 300 300" version="1.1" xmlns="http://www.w3.org/2000/svg" xmlns:xlink="http://www.w3.org/1999/xlink" xml:space="preserve" xmlns:serif="http://www.serif.com/" style="fill-rule:evenodd;clip-rule:evenodd;stroke-linejoin:round;stroke-miterlimit:2;">
    <g transform="matrix(1.92512,0,0,1.92512,-70.9903,-102.894)">
        <circle cx="114.793" cy="131.365" r="77.917" style="fill:rgb(26,132,173);"/>
        <clipPath id="_clip1">
            <circle cx="114.793" cy="131.365" r="77.917"/>
        </clipPath>
        <g clip-path="url(#_clip1)">
            <g transform="matrix(0.701214,0,0,0.701214,17.3294,66.673)">
                <path d="M17.42,106.46L4.17,118.46C4.17,118.46 10.67,126.58 19.29,131.46C27.91,136.34 32.67,135.97 42.36,135.84C51.67,135.84 61.17,134.08 68.79,127.33C76.41,120.58 77.86,118.73 77.79,110.22C77.79,106.22 76.72,97.41 71.89,91.71C66.42,85.26 57.11,82.14 57.11,82.14C57.11,82.14 28.61,75 31.54,65.08C32.77,60.93 39.36,59.36 45.83,60.5C54.03,61.94 62.31,66.87 62.31,66.87L73.88,55.54C70.06,51.337 65.497,47.875 60.42,45.33C54.35,42.33 45.99,41.27 40.63,41.26C28,41.21 12.3,52.45 10.42,64.08C8.895,71.969 11.808,80.09 18,85.21C25.92,92.08 31.52,93 31.52,93C31.52,93 56.64,99.47 56.64,107.29C56.64,115.11 50.54,118 40.79,118.08C31.04,118.16 17.42,106.46 17.42,106.46Z" style="fill:white;fill-rule:nonzero;"/>
                <path d="M198.51,45.48L198.71,63.68L209.11,63.68L209.21,117.58C210.522,121.63 212.746,125.325 215.71,128.38C219.161,131.856 223.422,134.42 228.11,135.84L248.51,135.84L248.61,117.28L237.61,117.18C237.61,117.18 235.21,117.28 232.51,114.68C230.839,113.043 229.87,110.818 229.81,108.48L230.01,63.58L250.01,63.58L250.11,45.38L230.11,45.28L229.91,10.08L209.11,10.08L209.31,45.48L198.51,45.48Z" style="fill:white;fill-rule:nonzero;"/>
                <path d="M156.67,49.83C144.14,47.07 131.42,48.46 123.29,53.21L133.92,10.08L112.73,4.9L82.6,126.33L103.6,132.4L106.5,120.5C112.67,132.17 119.69,137.78 133.17,140.83C158.17,146.5 180.48,129.07 186.5,102.17C191.67,79.08 175.92,54.08 156.67,49.83ZM162.76,117.09L132.6,125.4L110.11,102.62L117.78,71.54L147.94,63.24L170.42,86L162.76,117.09Z" style="fill:white;fill-rule:nonzero;"/>
            </g>
        </g>
    </g>
</svg>
