<?xml version="1.0" encoding="UTF-8" standalone="no"?>
<!DOCTYPE svg PUBLIC "-//W3C//DTD SVG 1.1//EN" "http://www.w3.org/Graphics/SVG/1.1/DTD/svg11.dtd">
<svg width="100%" height="100%" viewBox="0 0 300 300" version="1.1" xmlns="http://www.w3.org/2000/svg" xmlns:xlink="http://www.w3.org/1999/xlink" xml:space="preserve" xmlns:serif="http://www.serif.com/" style="fill-rule:evenodd;clip-rule:evenodd;stroke-linejoin:round;stroke-miterlimit:2;">
    <g transform="matrix(1.92512,0,0,1.92512,-70.9903,-102.894)">
        <circle cx="114.793" cy="131.365" r="77.917" style="fill:rgb(222,52,35);"/>
        <clipPath id="_clip1">
            <circle cx="114.793" cy="131.365" r="77.917"/>
        </clipPath>
        <g clip-path="url(#_clip1)">
            <g transform="matrix(0.776802,0,0,0.776802,-1.44002,19.3386)">
                <g transform="matrix(1,0,0,1,72.5,33)">
                    <g opacity="0.5">
                        <path d="M10.45,89.83C12.31,92.38 27.95,97.19 51.18,102.2C74.45,106.66 98.64,124.27 117.46,118.84C130.19,115.16 144,82.37 144,77.5L144,77C144,73.6 141.45,70.87 137.12,68.6C119.37,59.55 116,56.21 109.43,58C75.27,67.43 15,62.61 10.45,89.83Z" style="fill:white;"/>
                    </g>
                </g>
                <g transform="matrix(1,0,0,1,72.5,33)">
                    <g opacity="0.5">
                        <path d="M10.45,156.41C12.31,158.97 27.95,163.77 51.18,168.79C77.13,173.53 99.79,188.98 118.61,183.54C131.34,179.86 144,149 144,144.08L144,143.6C144,140.21 141.45,137.47 137.12,135.21C123.58,128.01 105.69,120.08 99.12,121.89C64.94,131.3 19.17,133.37 10.45,156.41Z" style="fill:white;"/>
                    </g>
                </g>
                <g transform="matrix(1,0,0,1,72.5,33)">
                    <path d="M10.26,104.14L10.26,104.62L10.31,104.62C10.278,104.462 10.261,104.301 10.26,104.14Z" style="fill:rgb(85,85,85);"/>
                </g>
                <g transform="matrix(1,0,0,1,72.5,33)">
                    <path d="M118.56,23.78C87.11,32.87 37.2,38 10.31,38L10.26,38L10.26,89.35C10.273,89.526 10.34,89.693 10.45,89.83C28.81,89.83 85.45,83.83 119.63,74.43C125.592,72.914 131.437,70.973 137.12,68.62C141.31,66.74 144,64.76 144,62.7L144,10.91C144,15.79 131.29,20.11 118.56,23.78Z" style="fill:white;"/>
                </g>
                <g transform="matrix(1,0,0,1,72.5,33)">
                    <path d="M118.56,90.37C99.74,95.8 74.32,99.84 51.18,102.2C35.63,103.79 21.11,104.62 10.31,104.62L10.26,104.62L10.26,155.93C10.273,156.106 10.34,156.273 10.45,156.41C28.81,156.41 85.45,150.41 119.63,141.02C125.59,139.5 131.435,137.558 137.12,135.21C141.31,133.32 144,131.35 144,129.29L144,77.5C144,82.37 131.29,86.69 118.56,90.37Z" style="fill:white;"/>
                </g>
                <g transform="matrix(1,0,0,1,72.5,33)">
                    <path d="M118.56,157C99.74,162.43 74.32,166.46 51.18,168.83C35.61,170.42 21.08,171.25 10.26,171.25L10.26,223C28.43,223 85.36,217.05 119.63,207.61C132.26,204.13 144,200.17 144,195.87L144,144.08C144,149 131.29,153.28 118.56,157Z" style="fill:white;"/>
                </g>
            </g>
        </g>
    </g>
</svg>
