<?xml version="1.0" encoding="UTF-8" standalone="no"?>
<!DOCTYPE svg PUBLIC "-//W3C//DTD SVG 1.1//EN" "http://www.w3.org/Graphics/SVG/1.1/DTD/svg11.dtd">
<svg width="100%" height="100%" viewBox="0 0 300 300" version="1.1" xmlns="http://www.w3.org/2000/svg" xmlns:xlink="http://www.w3.org/1999/xlink" xml:space="preserve" xmlns:serif="http://www.serif.com/" style="fill-rule:evenodd;clip-rule:evenodd;stroke-linejoin:round;stroke-miterlimit:2;">
    <g transform="matrix(1.92512,0,0,1.92512,-70.9903,-102.894)">
        <circle cx="114.793" cy="131.365" r="77.917" style="fill:rgb(153,153,153);"/>
        <clipPath id="_clip1">
            <circle cx="114.793" cy="131.365" r="77.917"/>
        </clipPath>
        <g clip-path="url(#_clip1)">
            <g transform="matrix(3.73137,0,0,3.73137,-32.6437,6.53425)">
                <path d="M26.5,55.6C16.6,52 11.5,49.6 10.5,48C9.8,46.9 15.7,41 17.5,41C18,41 16.6,40.1 14.3,38.9C11.9,37.7 10,36.5 10,36.1C10,35.1 15,30.5 17.4,29.2C19.2,28.3 19,28 15.2,26.1C13,25 10.9,23.6 10.5,23.1C9,20.6 23.6,11.6 34.3,8.5C40.8,6.6 41.5,6.8 56,12.7C64.7,16.3 70,19.4 70,21.1C70,21.6 67.9,23.4 65.4,25L60.8,27.9L64.8,29.9C67.1,31 69.2,32.5 69.6,33.1C70.3,34.2 68.2,36.5 64.1,39.1C63,39.8 62.9,40.3 63.7,40.6C66.6,41.9 69.9,45.2 69.4,46.4C68.7,48.2 59.2,53.3 50.6,56.5C41.9,59.8 37.4,59.6 26.5,55.6Z" style="fill:rgb(123,28,45);fill-rule:nonzero;"/>
                <path d="M24.4,42.7C18.3,40.4 12.5,38 11.4,37.3C9.6,36.2 9.6,36.1 11.5,33.9C12.6,32.7 14.8,30.9 16.4,29.9L19.3,28.2L15.2,26.1C13,25 10.9,23.6 10.5,23.1C9,20.6 23.6,11.6 34.3,8.5C40.8,6.6 41.5,6.8 56,12.7C64.7,16.3 70,19.4 70,21.1C70,21.6 68,23.3 65.5,24.9L60.9,27.8L65.1,30.2C67.5,31.4 69.5,33 69.7,33.7C70.7,36.7 46.8,47.1 39.3,46.9C37.2,46.9 30.5,45 24.4,42.7Z" style="fill:rgb(225,50,39);fill-rule:nonzero;"/>
                <path d="M25.8,30.1C16.1,26.6 10,23.7 10,22.5C10,19.9 25.1,11.2 34.3,8.5C40.2,6.8 40.2,6.8 47.8,9.5C57.9,13.1 67.5,17.6 69.1,19.6C70.3,21 70,21.6 67.5,23.6C65.9,24.9 63.4,26.4 62,26.9C60.6,27.4 56.4,29 52.7,30.5C41.9,34.7 38.2,34.6 25.8,30.1Z" style="fill:rgb(249,133,36);fill-rule:nonzero;"/>
                <path d="M14.8,26C12.8,24.9 10.9,23.6 10.6,23.1C9,20.6 23.6,11.6 34.4,8.5C40.2,6.8 40.2,6.8 47.8,9.5C56.6,12.6 66.8,17.5 68.9,19.5C70.7,21.3 69.6,22.8 64.3,25.7L60.5,27.8L51.5,24.4C46.6,22.5 40.9,21 39,21C37.1,21 31.9,22.6 27.5,24.5C23.1,26.4 19.3,28 19,28C18.7,27.9 16.8,27 14.8,26Z" style="fill:rgb(255,167,35);fill-rule:nonzero;"/>
            </g>
        </g>
    </g>
</svg>
