<?xml version="1.0" encoding="UTF-8" standalone="no"?>
<!DOCTYPE svg PUBLIC "-//W3C//DTD SVG 1.1//EN" "http://www.w3.org/Graphics/SVG/1.1/DTD/svg11.dtd">
<svg width="100%" height="100%" viewBox="0 0 300 300" version="1.1" xmlns="http://www.w3.org/2000/svg" xmlns:xlink="http://www.w3.org/1999/xlink" xml:space="preserve" xmlns:serif="http://www.serif.com/" style="fill-rule:evenodd;clip-rule:evenodd;stroke-linejoin:round;stroke-miterlimit:2;">
    <g transform="matrix(1.92512,0,0,1.92512,-70.9903,-102.894)">
        <circle cx="114.793" cy="131.365" r="77.917" style="fill:rgb(247,146,16);"/>
    </g>
    <g transform="matrix(0.883911,0,0,0.883911,36.4996,57.5866)">
        <g id="g2468" transform="matrix(1.25,0,0,-1.25,-2511.78,415.359)">
            <g id="g2470">
                <g id="g2476">
                    <g id="g2478">
                        <path id="path2488" d="M2105.26,279.213C2103.66,278.34 2103.08,276.303 2103.93,274.701C2104.78,273.059 2106.82,272.475 2108.42,273.334C2110.03,274.222 2110.62,276.238 2109.76,277.87C2109.17,278.978 2108.02,279.617 2106.84,279.617C2106.31,279.617 2105.76,279.488 2105.26,279.213M2114.16,279.073C2112.72,278.305 2112.22,276.513 2112.97,275.066C2113.73,273.628 2115.51,273.089 2116.93,273.878C2118.39,274.661 2118.9,276.448 2118.14,277.89C2117.62,278.874 2116.62,279.448 2115.57,279.448C2115.1,279.448 2114.61,279.323 2114.16,279.073M2096.82,276.688C2095,275.694 2094.31,273.399 2095.31,271.577C2096.3,269.745 2098.57,269.032 2100.41,270.03C2102.23,271.023 2102.89,273.319 2101.91,275.14C2101.24,276.418 2099.94,277.147 2098.6,277.147C2098,277.147 2097.39,276.997 2096.82,276.688M2122.7,276.268C2121.44,275.565 2120.96,273.973 2121.63,272.725C2122.31,271.467 2123.9,271.003 2125.12,271.692C2126.39,272.376 2126.85,273.948 2126.16,275.2C2125.71,276.079 2124.81,276.573 2123.89,276.573C2123.49,276.573 2123.07,276.473 2122.7,276.268M2090.12,270.978C2088.49,270.08 2087.89,268.088 2088.77,266.436C2089.65,264.829 2091.62,264.225 2093.24,265.099C2094.87,265.972 2095.47,268.009 2094.6,269.611C2094,270.734 2092.85,271.382 2091.67,271.382C2091.14,271.382 2090.61,271.253 2090.12,270.978M2130.05,270.938C2128.95,270.334 2128.56,268.992 2129.13,267.919C2129.71,266.846 2131.04,266.451 2132.14,267.005C2133.21,267.614 2133.63,268.957 2133.04,270.04C2132.63,270.783 2131.87,271.213 2131.09,271.213C2130.74,271.213 2130.38,271.123 2130.05,270.938M2135.48,263.652C2134.62,263.147 2134.26,261.995 2134.76,261.116C2135.24,260.213 2136.36,259.888 2137.23,260.368C2138.13,260.852 2138.47,261.96 2137.98,262.863C2137.64,263.502 2137,263.856 2136.33,263.856C2136.05,263.856 2135.75,263.791 2135.48,263.652M2085.34,263.417C2083.91,262.633 2083.38,260.827 2084.13,259.394C2084.92,257.967 2086.7,257.413 2088.12,258.201C2089.56,258.965 2090.11,260.772 2089.33,262.219C2088.79,263.202 2087.77,263.766 2086.73,263.766C2086.26,263.766 2085.78,263.652 2085.34,263.417M2138.24,255.676C2137.15,255.102 2136.74,253.73 2137.33,252.652C2137.89,251.574 2139.26,251.174 2140.29,251.728C2141.38,252.362 2141.8,253.715 2141.23,254.783C2140.82,255.526 2140.06,255.946 2139.28,255.946C2138.93,255.946 2138.57,255.856 2138.24,255.676M2083,254.658C2081.77,253.989 2081.31,252.412 2081.97,251.164C2082.66,249.892 2084.21,249.428 2085.47,250.106C2086.71,250.79 2087.19,252.387 2086.51,253.625C2086.05,254.493 2085.17,254.987 2084.26,254.987C2083.83,254.987 2083.4,254.878 2083,254.658M2138.25,247.222C2136.99,246.523 2136.55,244.966 2137.2,243.683C2137.86,242.445 2139.47,241.991 2140.71,242.655C2141.96,243.339 2142.41,244.916 2141.73,246.168C2141.27,247.042 2140.4,247.531 2139.48,247.531C2139.07,247.531 2138.65,247.426 2138.25,247.222M2083.37,245.575C2082.32,244.981 2081.92,243.618 2082.49,242.545C2083.08,241.452 2084.43,241.073 2085.48,241.672C2086.55,242.221 2086.99,243.603 2086.38,244.676C2085.96,245.41 2085.21,245.839 2084.42,245.839C2084.07,245.839 2083.71,245.754 2083.37,245.575M2135.58,239.141C2134.14,238.378 2133.62,236.541 2134.38,235.104C2135.16,233.676 2136.95,233.137 2138.35,233.906C2139.82,234.704 2140.32,236.486 2139.57,237.939C2139.04,238.927 2138.02,239.496 2136.97,239.496C2136.51,239.496 2136.03,239.386 2135.58,239.141M2086.46,236.96C2085.56,236.486 2085.24,235.358 2085.72,234.43C2086.2,233.547 2087.31,233.202 2088.22,233.676C2089.11,234.185 2089.44,235.308 2088.95,236.207C2088.62,236.826 2087.97,237.18 2087.32,237.18C2087.03,237.18 2086.73,237.11 2086.46,236.96M2130.46,232.229C2128.84,231.346 2128.25,229.319 2129.12,227.707C2129.97,226.085 2131.98,225.481 2133.61,226.375C2135.21,227.213 2135.81,229.274 2134.93,230.881C2134.32,231.989 2133.19,232.638 2132.01,232.638C2131.49,232.638 2130.96,232.508 2130.46,232.229M2091.58,230.308C2090.5,229.739 2090.1,228.371 2090.68,227.298C2091.24,226.215 2092.59,225.816 2093.66,226.415C2094.73,226.974 2095.13,228.326 2094.56,229.409C2094.17,230.148 2093.41,230.562 2092.62,230.562C2092.26,230.562 2091.91,230.482 2091.58,230.308M2123.3,227.283C2121.47,226.305 2120.78,224.014 2121.79,222.172C2122.78,220.341 2125.05,219.667 2126.88,220.635C2128.7,221.643 2129.37,223.949 2128.4,225.741C2127.72,227.019 2126.42,227.752 2125.09,227.752C2124.48,227.752 2123.87,227.602 2123.3,227.283M2098.59,225.641C2097.31,224.947 2096.85,223.395 2097.54,222.137C2098.19,220.87 2099.76,220.386 2101.01,221.064C2102.27,221.778 2102.74,223.36 2102.06,224.608C2101.59,225.461 2100.7,225.955 2099.79,225.955C2099.38,225.955 2098.97,225.861 2098.59,225.641M2115.28,223.984C2113.66,223.121 2113.1,221.104 2113.98,219.462C2114.82,217.855 2116.82,217.216 2118.44,218.13C2120.06,218.983 2120.64,221.015 2119.78,222.632C2119.17,223.75 2118.03,224.383 2116.86,224.383C2116.32,224.383 2115.78,224.254 2115.28,223.984M2106.74,223.465C2105.3,222.686 2104.79,220.875 2105.55,219.447C2106.34,218 2108.12,217.461 2109.55,218.235C2111,218.993 2111.52,220.81 2110.75,222.267C2110.22,223.255 2109.2,223.804 2108.14,223.804C2107.66,223.804 2107.18,223.7 2106.74,223.465" style="fill:rgb(130,127,128);fill-rule:nonzero;"/>
                    </g>
                </g>
            </g>
        </g>
        <g id="g2490" transform="matrix(1.25,0,0,-1.25,-2511.78,415.359)">
            <g id="g2492">
                <g id="g2498">
                    <g id="g2500">
                        <path id="path2510" d="M2106.72,288.321C2106.06,286.075 2107.33,283.735 2109.57,283.061C2111.8,282.397 2114.13,283.7 2114.79,285.921C2115.45,288.167 2114.18,290.537 2111.96,291.186C2111.55,291.311 2111.15,291.366 2110.75,291.366C2108.92,291.366 2107.27,290.163 2106.72,288.321M2117.99,286.954C2117.25,284.359 2118.66,281.674 2121.26,280.905C2123.82,280.141 2126.5,281.609 2127.25,284.174C2128.03,286.779 2126.56,289.494 2123.98,290.258C2123.53,290.388 2123.07,290.452 2122.63,290.452C2120.53,290.452 2118.6,289.07 2117.99,286.954M2095.42,285.966C2094.84,283.964 2095.98,281.878 2097.96,281.289C2099.94,280.7 2102.03,281.828 2102.6,283.84C2103.17,285.826 2102.03,287.922 2100.07,288.511C2099.72,288.611 2099.37,288.661 2099.02,288.661C2097.4,288.661 2095.91,287.593 2095.42,285.966M2129.39,281.604C2128.73,279.363 2130.02,277.012 2132.24,276.348C2134.47,275.684 2136.81,276.992 2137.46,279.228C2138.13,281.469 2136.86,283.825 2134.62,284.488C2134.23,284.608 2133.84,284.663 2133.44,284.663C2131.62,284.663 2129.94,283.445 2129.39,281.604M2085.69,279.957C2085.24,278.375 2086.11,276.743 2087.68,276.273C2089.24,275.814 2090.88,276.723 2091.34,278.285C2091.8,279.852 2090.9,281.499 2089.34,281.968C2089.06,282.053 2088.78,282.093 2088.51,282.093C2087.23,282.093 2086.06,281.249 2085.69,279.957M2138.53,273.214C2137.93,271.193 2139.08,269.121 2141.05,268.533C2143.04,267.949 2145.11,269.107 2145.7,271.098C2146.29,273.074 2145.16,275.17 2143.16,275.749C2142.81,275.854 2142.46,275.904 2142.11,275.904C2140.51,275.904 2139.02,274.841 2138.53,273.214M2078,271.053C2077.62,269.795 2078.36,268.453 2079.62,268.088C2080.88,267.714 2082.19,268.438 2082.57,269.705C2082.96,270.963 2082.22,272.301 2080.97,272.69C2080.75,272.75 2080.53,272.78 2080.31,272.78C2079.27,272.78 2078.31,272.111 2078,271.053M2145.02,262.419C2144.54,260.817 2145.46,259.18 2147.01,258.721C2148.58,258.256 2150.21,259.155 2150.67,260.732C2151.13,262.309 2150.24,263.951 2148.68,264.405C2148.4,264.49 2148.12,264.53 2147.84,264.53C2146.56,264.53 2145.39,263.691 2145.02,262.419M2073.48,259.998C2073.2,259.04 2073.72,258.032 2074.67,257.757C2075.62,257.478 2076.61,258.032 2076.89,258.98C2077.16,259.928 2076.62,260.922 2075.67,261.211C2075.5,261.256 2075.34,261.281 2075.17,261.281C2074.4,261.281 2073.7,260.777 2073.48,259.998M2147.78,250.411C2147.4,249.148 2148.12,247.796 2149.39,247.431C2150.66,247.052 2151.98,247.786 2152.35,249.063C2152.72,250.316 2152.01,251.658 2150.74,252.043C2150.51,252.103 2150.29,252.138 2150.08,252.138C2149.03,252.138 2148.07,251.459 2147.78,250.411M2071.34,248.225C2070.96,246.962 2071.7,245.634 2072.96,245.255C2074.22,244.876 2075.54,245.59 2075.92,246.872C2076.3,248.14 2075.58,249.472 2074.31,249.857C2074.09,249.927 2073.87,249.952 2073.65,249.952C2072.62,249.952 2071.66,249.263 2071.34,248.225M2146.81,238.288C2146.55,237.345 2147.07,236.331 2148.01,236.067C2148.96,235.787 2149.94,236.327 2150.21,237.285C2150.5,238.228 2149.96,239.236 2149.01,239.516C2148.85,239.561 2148.69,239.581 2148.53,239.581C2147.76,239.581 2147.04,239.071 2146.81,238.288M2073.04,236.536C2072.6,234.969 2073.45,233.312 2075.03,232.853C2076.57,232.379 2078.22,233.297 2078.68,234.879C2079.14,236.446 2078.24,238.093 2076.69,238.527C2076.4,238.617 2076.11,238.657 2075.82,238.657C2074.55,238.657 2073.4,237.824 2073.04,236.536M2141.12,227.583C2140.75,226.305 2141.48,224.967 2142.72,224.608C2144,224.229 2145.33,224.962 2145.7,226.225C2146.06,227.483 2145.35,228.835 2144.08,229.215C2143.86,229.279 2143.64,229.309 2143.41,229.309C2142.38,229.309 2141.43,228.631 2141.12,227.583M2077.99,226.19C2077.4,224.199 2078.53,222.113 2080.52,221.514C2082.52,220.92 2084.58,222.068 2085.18,224.064C2085.76,226.055 2084.61,228.161 2082.62,228.755C2082.28,228.86 2081.92,228.91 2081.57,228.91C2079.96,228.91 2078.48,227.837 2077.99,226.19M2132.35,218.993C2131.9,217.431 2132.81,215.779 2134.36,215.31C2135.91,214.846 2137.54,215.754 2138,217.306C2138.47,218.893 2137.58,220.54 2136.02,221C2135.74,221.084 2135.46,221.124 2135.18,221.124C2133.91,221.124 2132.73,220.276 2132.35,218.993M2086.24,218.035C2085.59,215.814 2086.84,213.458 2089.08,212.79C2091.32,212.141 2093.64,213.428 2094.31,215.664C2094.95,217.89 2093.68,220.266 2091.44,220.92C2091.04,221.039 2090.64,221.094 2090.26,221.094C2088.43,221.094 2086.77,219.897 2086.24,218.035M2096.44,213.084C2095.7,210.474 2097.14,207.794 2099.72,207.025C2102.28,206.281 2104.98,207.764 2105.71,210.324C2106.47,212.909 2105.01,215.619 2102.43,216.383C2101.98,216.518 2101.52,216.578 2101.07,216.578C2098.97,216.578 2097.05,215.21 2096.44,213.084M2121.09,213.443C2120.51,211.442 2121.66,209.346 2123.63,208.767C2125.63,208.178 2127.69,209.316 2128.28,211.322C2128.86,213.299 2127.74,215.4 2125.75,215.984C2125.39,216.094 2125.03,216.143 2124.68,216.143C2123.06,216.143 2121.56,215.075 2121.09,213.443M2108.9,211.332C2108.25,209.106 2109.53,206.771 2111.76,206.097C2113.99,205.423 2116.33,206.716 2116.97,208.947C2117.62,211.197 2116.36,213.553 2114.13,214.212C2113.73,214.327 2113.33,214.387 2112.93,214.387C2111.11,214.387 2109.44,213.189 2108.9,211.332" style="fill:rgb(130,127,128);fill-rule:nonzero;"/>
                    </g>
                </g>
            </g>
        </g>
        <g id="g2512" transform="matrix(1.25,0,0,-1.25,-2511.78,415.359)">
            <g id="g2514">
                <g id="g2520">
                    <g id="g2522">
                        <path id="path2532" d="M2114.81,302.86C2113,300.923 2113.08,297.864 2115.02,296.032C2116.95,294.201 2119.99,294.29 2121.79,296.232C2123.6,298.183 2123.51,301.228 2121.58,303.064C2120.66,303.938 2119.48,304.372 2118.31,304.372C2117.03,304.372 2115.75,303.863 2114.81,302.86M2099.62,301.677C2098.2,300.14 2098.27,297.739 2099.79,296.292C2101.3,294.859 2103.69,294.939 2105.13,296.461C2106.54,297.984 2106.48,300.404 2104.96,301.837C2104.23,302.53 2103.3,302.865 2102.37,302.865C2101.37,302.865 2100.37,302.465 2099.62,301.677M2129.68,298.787C2127.64,296.606 2127.73,293.177 2129.9,291.106C2132.06,289.045 2135.5,289.155 2137.53,291.326C2139.57,293.512 2139.47,296.961 2137.31,299.007C2136.26,300.005 2134.92,300.499 2133.6,300.499C2132.17,300.499 2130.75,299.92 2129.68,298.787M2085.14,295.773C2083.98,294.535 2084.04,292.604 2085.26,291.421C2086.5,290.263 2088.43,290.318 2089.59,291.555C2090.74,292.788 2090.68,294.735 2089.46,295.897C2088.86,296.461 2088.11,296.741 2087.36,296.741C2086.55,296.741 2085.74,296.412 2085.14,295.773M2142.27,290.283C2139.91,287.782 2140,283.84 2142.51,281.464C2145.01,279.083 2148.94,279.213 2151.27,281.698C2153.63,284.244 2153.52,288.192 2151.03,290.562C2149.83,291.7 2148.3,292.254 2146.79,292.254C2145.13,292.254 2143.49,291.595 2142.27,290.283M2073.1,285.407C2072.23,284.478 2072.27,283.036 2073.19,282.163C2074.12,281.279 2075.56,281.334 2076.41,282.252C2077.27,283.176 2077.23,284.628 2076.32,285.502C2075.87,285.916 2075.31,286.12 2074.74,286.12C2074.14,286.12 2073.55,285.881 2073.1,285.407M2152.61,277.027C2150.56,274.851 2150.66,271.407 2152.84,269.346C2155.01,267.28 2158.42,267.41 2160.45,269.581C2162.5,271.767 2162.41,275.185 2160.22,277.267C2159.19,278.25 2157.87,278.739 2156.54,278.739C2155.11,278.739 2153.67,278.165 2152.61,277.027M2063.55,272.69C2062.38,271.452 2062.45,269.516 2063.69,268.338C2064.9,267.18 2066.83,267.23 2068,268.453C2069.14,269.695 2069.1,271.637 2067.87,272.805C2067.28,273.369 2066.52,273.648 2065.78,273.648C2064.96,273.648 2064.15,273.324 2063.55,272.69M2158.41,261.5C2156.58,259.559 2156.68,256.5 2158.62,254.678C2160.54,252.831 2163.58,252.946 2165.39,254.883C2167.22,256.814 2167.12,259.873 2165.19,261.71C2164.26,262.583 2163.07,263.018 2161.89,263.018C2160.62,263.018 2159.35,262.514 2158.41,261.5M2058.57,257.757C2057.17,256.215 2057.2,253.834 2058.73,252.392C2060.24,250.945 2062.64,251.025 2064.07,252.537C2065.5,254.059 2065.42,256.49 2063.91,257.922C2063.18,258.616 2062.25,258.96 2061.31,258.96C2060.31,258.96 2059.31,258.556 2058.57,257.757M2159.61,244.746C2158.19,243.219 2158.28,240.813 2159.78,239.381C2161.32,237.929 2163.69,238.008 2165.12,239.541C2166.55,241.063 2166.5,243.463 2164.95,244.911C2164.23,245.6 2163.3,245.939 2162.37,245.939C2161.37,245.939 2160.36,245.54 2159.61,244.746M2058.29,242.425C2056.49,240.494 2056.58,237.42 2058.5,235.593C2060.44,233.756 2063.46,233.851 2065.28,235.792C2067.1,237.724 2067.01,240.788 2065.08,242.635C2064.15,243.518 2062.98,243.948 2061.8,243.948C2060.53,243.948 2059.24,243.434 2058.29,242.425M2155.69,228.835C2154.53,227.602 2154.59,225.646 2155.82,224.468C2157.06,223.305 2158.99,223.37 2160.15,224.618C2161.3,225.851 2161.26,227.802 2160.02,228.975C2159.43,229.534 2158.68,229.808 2157.92,229.808C2157.11,229.808 2156.3,229.479 2155.69,228.835M2063.24,227.707C2061.2,225.541 2061.27,222.098 2063.45,220.026C2065.63,217.98 2069.05,218.09 2071.08,220.261C2073.12,222.437 2073.02,225.896 2070.86,227.937C2069.82,228.935 2068.49,229.419 2067.18,229.419C2065.74,229.419 2064.31,228.835 2063.24,227.707M2072.4,215.584C2070.06,213.044 2070.17,209.131 2072.67,206.741C2075.16,204.375 2079.09,204.485 2081.43,207.005C2083.79,209.521 2083.67,213.463 2081.17,215.844C2079.97,216.982 2078.44,217.546 2076.91,217.551C2075.27,217.551 2073.62,216.887 2072.4,215.584M2147.27,215.035C2146.41,214.107 2146.46,212.655 2147.37,211.786C2148.29,210.928 2149.73,210.958 2150.59,211.901C2151.45,212.815 2151.42,214.272 2150.49,215.13C2150.06,215.55 2149.49,215.759 2148.93,215.759C2148.32,215.759 2147.72,215.515 2147.27,215.035M2086.16,205.947C2084.13,203.796 2084.22,200.352 2086.4,198.286C2088.57,196.215 2091.99,196.33 2094.01,198.506C2096.05,200.707 2095.97,204.13 2093.78,206.192C2092.75,207.175 2091.42,207.664 2090.1,207.664L2090.08,207.664C2088.64,207.664 2087.22,207.085 2086.16,205.947M2134.11,205.742C2132.94,204.505 2133,202.553 2134.22,201.39C2135.47,200.223 2137.4,200.282 2138.55,201.52C2139.71,202.748 2139.66,204.694 2138.42,205.867C2137.83,206.431 2137.08,206.711 2136.32,206.711C2135.51,206.711 2134.7,206.386 2134.11,205.742M2101.89,201.066C2100.07,199.135 2100.16,196.055 2102.09,194.249C2104.05,192.402 2107.06,192.492 2108.87,194.438C2110.69,196.37 2110.62,199.439 2108.68,201.261C2107.75,202.149 2106.58,202.578 2105.39,202.578C2104.11,202.578 2102.83,202.069 2101.89,201.066M2118.56,200.826C2117.14,199.319 2117.22,196.894 2118.73,195.456C2120.25,194.014 2122.64,194.104 2124.07,195.631C2125.5,197.138 2125.44,199.554 2123.91,200.996C2123.18,201.69 2122.25,202.029 2121.32,202.029C2120.32,202.029 2119.31,201.625 2118.56,200.826" style="fill:rgb(130,127,128);fill-rule:nonzero;"/>
                    </g>
                </g>
            </g>
        </g>
        <g id="g2534" transform="matrix(1.25,0,0,-1.25,-2511.78,415.359)">
            <g id="g2536">
                <g id="g2542">
                    <g id="g2544">
                        <path id="path2554" d="M2118.83,319.924C2116.58,319.474 2115.12,317.293 2115.57,315.013C2116.02,312.757 2118.21,311.289 2120.45,311.744C2122.7,312.198 2124.15,314.394 2123.7,316.65C2123.3,318.651 2121.58,320.008 2119.65,320.008C2119.38,320.008 2119.11,319.978 2118.83,319.924M2101.64,318.791C2099.88,318.526 2098.64,316.879 2098.91,315.087C2099.17,313.301 2100.82,312.078 2102.58,312.332C2104.36,312.597 2105.59,314.244 2105.32,316.036C2105.09,317.663 2103.71,318.826 2102.12,318.826C2101.96,318.826 2101.8,318.811 2101.64,318.791M2135.39,316.4C2132.71,315.711 2131.08,312.966 2131.77,310.246C2132.45,307.541 2135.2,305.894 2137.88,306.598C2140.56,307.287 2142.19,310.047 2141.5,312.747C2140.92,315.047 2138.88,316.56 2136.64,316.56C2136.23,316.56 2135.81,316.51 2135.39,316.4M2084.06,313.535C2082.53,312.871 2081.82,311.09 2082.48,309.538C2083.13,308 2084.92,307.297 2086.45,307.955C2087.97,308.624 2088.69,310.411 2088.03,311.948C2087.53,313.101 2086.42,313.785 2085.26,313.785C2084.86,313.785 2084.45,313.705 2084.06,313.535M2150.07,308.914C2146.78,307.881 2144.92,304.347 2145.96,301.013C2146.99,297.689 2150.51,295.833 2153.8,296.871C2157.11,297.914 2158.95,301.452 2157.92,304.771C2157.07,307.476 2154.61,309.203 2151.95,309.203C2151.32,309.203 2150.7,309.108 2150.07,308.914M2068.19,304.257C2066.79,303.134 2066.54,301.098 2067.65,299.676C2068.76,298.258 2070.81,298.024 2072.2,299.137C2073.61,300.26 2073.86,302.306 2072.74,303.728C2072.1,304.542 2071.16,304.966 2070.21,304.966C2069.5,304.966 2068.79,304.731 2068.19,304.257M2162.13,297.125C2158.55,295.793 2156.71,291.81 2158.05,288.192C2159.37,284.578 2163.35,282.742 2166.91,284.074C2170.49,285.402 2172.33,289.414 2171,293.018C2169.97,295.843 2167.33,297.559 2164.53,297.559C2163.74,297.559 2162.92,297.42 2162.13,297.125M2055.58,292.449C2053.71,291.116 2053.25,288.521 2054.59,286.624C2055.92,284.748 2058.5,284.304 2060.37,285.636C2062.24,286.974 2062.68,289.579 2061.35,291.456C2060.55,292.609 2059.27,293.222 2057.98,293.222C2057.15,293.222 2056.31,292.973 2055.58,292.449M2170.52,282.377C2166.71,280.715 2164.94,276.293 2166.59,272.435C2168.24,268.592 2172.66,266.821 2176.47,268.473C2180.28,270.13 2182.04,274.591 2180.39,278.424C2179.17,281.294 2176.4,282.996 2173.5,282.996C2172.51,282.996 2171.49,282.801 2170.52,282.377M2046.75,277.9C2044.41,276.398 2043.7,273.294 2045.2,270.918C2046.68,268.558 2049.78,267.854 2052.12,269.346C2054.48,270.833 2055.17,273.973 2053.68,276.338C2052.72,277.861 2051.11,278.689 2049.45,278.689C2048.52,278.689 2047.59,278.429 2046.75,277.9M2175.22,264.675C2171.82,262.973 2170.41,258.795 2172.1,255.367C2173.81,251.893 2177.94,250.511 2181.36,252.212C2184.77,253.909 2186.18,258.072 2184.48,261.525C2183.28,263.976 2180.82,265.393 2178.28,265.393C2177.25,265.393 2176.21,265.164 2175.22,264.675M2042.08,261.995C2039.06,260.293 2037.99,256.455 2039.69,253.41C2041.38,250.381 2045.19,249.288 2048.21,251C2051.23,252.702 2052.3,256.554 2050.61,259.594C2049.45,261.655 2047.34,262.808 2045.15,262.808L2045.12,262.808C2044.09,262.808 2043.04,262.544 2042.08,261.995M2175.46,246.283C2172.45,244.586 2171.37,240.733 2173.06,237.684C2174.77,234.64 2178.59,233.587 2181.59,235.288C2184.61,236.995 2185.69,240.823 2183.98,243.873C2182.84,245.934 2180.71,247.097 2178.52,247.097C2177.49,247.097 2176.43,246.837 2175.46,246.283M2042.31,245.071C2038.91,243.379 2037.49,239.216 2039.19,235.753C2040.89,232.309 2045.04,230.901 2048.46,232.608C2051.87,234.31 2053.27,238.488 2051.57,241.931C2050.36,244.392 2047.93,245.809 2045.4,245.809C2044.36,245.809 2043.31,245.57 2042.31,245.071M2047.21,228.805C2043.41,227.158 2041.63,222.716 2043.28,218.858C2044.92,215.02 2049.36,213.254 2053.16,214.906C2056.96,216.563 2058.72,221.015 2057.07,224.857C2055.84,227.722 2053.08,229.424 2050.18,229.424C2049.19,229.424 2048.18,229.229 2047.21,228.805M2171.56,227.942C2169.21,226.45 2168.51,223.315 2170,220.965C2171.49,218.589 2174.59,217.9 2176.93,219.392C2179.27,220.885 2179.98,223.999 2178.49,226.375C2177.53,227.892 2175.89,228.725 2174.23,228.725C2173.31,228.725 2172.39,228.471 2171.56,227.942M2056.76,213.209C2053.18,211.876 2051.35,207.864 2052.67,204.275C2054.01,200.637 2057.99,198.83 2061.54,200.168C2065.13,201.505 2066.96,205.473 2065.63,209.106C2064.6,211.906 2061.96,213.648 2059.15,213.648C2058.36,213.648 2057.55,213.508 2056.76,213.209M2163.31,211.647C2161.43,210.314 2161,207.709 2162.32,205.827C2163.65,203.936 2166.24,203.497 2168.11,204.824C2169.97,206.157 2170.42,208.757 2169.09,210.658C2168.28,211.806 2167,212.415 2165.7,212.42C2164.87,212.42 2164.03,212.166 2163.31,211.647M2069.87,200.412C2066.57,199.379 2064.73,195.846 2065.76,192.517C2066.8,189.168 2070.3,187.331 2073.6,188.379C2076.9,189.407 2078.75,192.936 2077.72,196.265C2076.89,198.97 2074.4,200.702 2071.73,200.702C2071.12,200.702 2070.49,200.607 2069.87,200.412M2151.46,198.146C2150.07,197.023 2149.83,194.972 2150.93,193.565C2152.05,192.137 2154.09,191.913 2155.49,193.031C2156.89,194.149 2157.13,196.19 2156.03,197.612C2155.39,198.426 2154.44,198.85 2153.49,198.85C2152.78,198.85 2152.07,198.621 2151.46,198.146M2085.8,190.685C2083.12,189.991 2081.5,187.246 2082.18,184.541C2082.87,181.811 2085.6,180.194 2088.29,180.883C2090.98,181.577 2092.61,184.317 2091.92,187.037C2091.34,189.323 2089.29,190.845 2087.06,190.845C2086.64,190.845 2086.22,190.79 2085.8,190.685M2137.23,189.323C2135.71,188.664 2135,186.877 2135.66,185.34C2136.33,183.783 2138.1,183.084 2139.62,183.743C2141.16,184.407 2141.87,186.198 2141.21,187.74C2140.72,188.888 2139.6,189.572 2138.43,189.572C2138.03,189.572 2137.62,189.492 2137.23,189.323M2103.22,185.544C2100.98,185.09 2099.52,182.879 2099.97,180.628C2100.42,178.353 2102.61,176.89 2104.85,177.344C2107.1,177.799 2108.56,180 2108.11,182.275C2107.71,184.252 2105.98,185.624 2104.03,185.624C2103.77,185.624 2103.5,185.599 2103.22,185.544M2121.09,184.956C2119.33,184.686 2118.1,183.029 2118.36,181.247C2118.62,179.456 2120.28,178.233 2122.03,178.492C2123.81,178.757 2125.04,180.404 2124.78,182.196C2124.55,183.823 2123.16,184.985 2121.55,184.985C2121.4,184.985 2121.25,184.98 2121.09,184.956" style="fill:rgb(130,127,128);fill-rule:nonzero;"/>
                    </g>
                </g>
            </g>
        </g>
        <g id="g2556" transform="matrix(1.25,0,0,-1.25,-2511.78,415.359)">
            <g id="g2558">
                <g id="g2564">
                    <g id="g2566">
                        <path id="path2576" d="M2107.97,335.27C2107.97,333.114 2109.71,331.378 2111.84,331.378C2113.97,331.378 2115.71,333.114 2115.71,335.27C2115.71,337.431 2113.97,339.153 2111.84,339.153C2109.71,339.153 2107.97,337.431 2107.97,335.27M2088.51,336.348C2086.29,335.755 2084.97,333.474 2085.56,331.238C2086.16,328.997 2088.45,327.684 2090.65,328.278C2092.87,328.877 2094.19,331.163 2093.6,333.404C2093.1,335.275 2091.43,336.498 2089.6,336.498C2089.24,336.498 2088.87,336.448 2088.51,336.348M2130.09,333.399C2129.49,331.163 2130.81,328.877 2133.02,328.278C2135.24,327.679 2137.52,328.997 2138.12,331.233C2138.71,333.469 2137.38,335.75 2135.16,336.348C2134.8,336.448 2134.44,336.493 2134.09,336.493C2132.26,336.493 2130.58,335.275 2130.09,333.399M2067.73,328.907C2064.86,328.293 2063.02,325.473 2063.63,322.564C2064.24,319.679 2067.06,317.837 2069.93,318.451C2072.81,319.065 2074.64,321.905 2074.03,324.8C2073.5,327.32 2071.3,329.032 2068.85,329.032C2068.48,329.032 2068.11,328.992 2067.73,328.907M2149.65,324.8C2149.04,321.905 2150.87,319.065 2153.74,318.451C2156.61,317.837 2159.43,319.679 2160.04,322.564C2160.66,325.473 2158.82,328.293 2155.95,328.902C2155.58,328.987 2155.2,329.027 2154.82,329.027C2152.37,329.027 2150.18,327.32 2149.65,324.8M2050.02,316.3C2046.52,315.741 2044.12,312.447 2044.68,308.889C2045.23,305.355 2048.53,302.935 2052.03,303.494C2055.55,304.053 2057.95,307.381 2057.39,310.92C2056.89,314.124 2054.16,316.38 2051.05,316.38C2050.71,316.38 2050.37,316.355 2050.02,316.3M2166.29,310.915C2165.74,307.376 2168.13,304.048 2171.64,303.489C2175.14,302.93 2178.45,305.35 2179,308.884C2179.57,312.442 2177.16,315.736 2173.66,316.295C2173.32,316.35 2172.98,316.375 2172.64,316.375C2169.53,316.375 2166.8,314.124 2166.29,310.915M2178.32,292.798C2177.87,288.366 2181.08,284.389 2185.47,283.919C2189.88,283.45 2193.82,286.684 2194.28,291.116C2194.75,295.573 2191.55,299.526 2187.15,299.995C2186.86,300.025 2186.58,300.04 2186.3,300.04C2182.26,300.04 2178.76,296.966 2178.32,292.798M2036.52,299.995C2032.11,299.526 2028.92,295.573 2029.39,291.116C2029.85,286.684 2033.78,283.45 2038.2,283.924C2042.6,284.389 2045.81,288.366 2045.34,292.798C2044.91,296.966 2041.42,300.04 2037.38,300.04C2037.1,300.04 2036.81,300.025 2036.52,299.995M2186.1,271.542C2185.84,266.626 2189.59,262.429 2194.45,262.169C2199.34,261.92 2203.51,265.693 2203.76,270.609C2204.02,275.55 2200.25,279.712 2195.39,279.967C2195.23,279.977 2195.07,279.982 2194.91,279.982C2190.25,279.982 2186.35,276.318 2186.1,271.542M2028.27,279.967C2023.42,279.712 2019.65,275.55 2019.91,270.609C2020.16,265.693 2024.34,261.92 2029.22,262.169C2034.09,262.429 2037.84,266.626 2037.59,271.542C2037.34,276.318 2033.44,279.982 2028.75,279.982C2028.59,279.982 2028.43,279.977 2028.27,279.967M2188.21,248.654C2188.21,243.294 2192.51,238.947 2197.82,238.947C2203.15,238.947 2207.46,243.294 2207.46,248.644C2207.46,254.029 2203.15,258.336 2197.84,258.336C2192.51,258.336 2188.21,254.029 2188.21,248.654M2016.21,248.644C2016.21,243.294 2020.54,238.947 2025.85,238.947C2031.14,238.947 2035.46,243.294 2035.46,248.654C2035.46,254.029 2031.14,258.336 2025.85,258.336C2020.54,258.336 2016.21,254.029 2016.21,248.644M2194.45,235.119C2189.59,234.859 2185.84,230.667 2186.1,225.756C2186.36,220.81 2190.52,217.077 2195.39,217.326C2200.25,217.586 2204.01,221.743 2203.76,226.689C2203.51,231.435 2199.6,235.129 2194.92,235.129C2194.76,235.129 2194.61,235.124 2194.45,235.119M2019.91,226.689C2019.66,221.743 2023.42,217.586 2028.28,217.326C2033.17,217.072 2037.33,220.81 2037.59,225.756C2037.84,230.667 2034.09,234.859 2029.22,235.119C2029.06,235.124 2028.91,235.129 2028.75,235.129C2024.08,235.129 2020.16,231.435 2019.91,226.689M2185.47,213.369C2181.07,212.904 2177.87,208.927 2178.32,204.485C2178.79,200.028 2182.76,196.834 2187.15,197.298C2191.55,197.767 2194.75,201.715 2194.28,206.177C2193.85,210.324 2190.37,213.413 2186.32,213.413C2186.04,213.413 2185.76,213.398 2185.47,213.369M2029.39,206.177C2028.92,201.715 2032.11,197.767 2036.52,197.298C2040.93,196.834 2044.88,200.028 2045.34,204.485C2045.81,208.927 2042.6,212.904 2038.2,213.369C2037.91,213.398 2037.63,213.413 2037.34,213.413C2033.29,213.413 2029.82,210.324 2029.39,206.177M2171.65,193.794C2168.13,193.23 2165.73,189.911 2166.29,186.378C2166.85,182.824 2170.15,180.434 2173.66,180.993C2177.16,181.552 2179.56,184.851 2179,188.404C2178.5,191.598 2175.75,193.874 2172.65,193.874C2172.32,193.874 2171.98,193.844 2171.65,193.794M2044.68,188.404C2044.12,184.851 2046.52,181.547 2050.02,180.993C2053.53,180.434 2056.83,182.824 2057.4,186.378C2057.95,189.906 2055.55,193.23 2052.03,193.789C2051.69,193.839 2051.36,193.869 2051.02,193.869C2047.92,193.869 2045.18,191.593 2044.68,188.404M2153.74,178.842C2150.87,178.228 2149.03,175.378 2149.65,172.498C2150.26,169.589 2153.08,167.752 2155.95,168.371C2158.82,168.98 2160.66,171.815 2160.04,174.724C2159.51,177.23 2157.3,178.961 2154.84,178.961C2154.48,178.961 2154.11,178.927 2153.74,178.842M2063.64,174.719C2063.02,171.815 2064.86,168.98 2067.73,168.366C2070.6,167.752 2073.42,169.589 2074.03,172.498C2074.64,175.378 2072.81,178.228 2069.93,178.842C2069.57,178.927 2069.2,178.961 2068.84,178.961C2066.38,178.961 2064.17,177.23 2063.64,174.719M2133.02,169.01C2130.81,168.411 2129.49,166.125 2130.08,163.884C2130.68,161.653 2132.96,160.341 2135.16,160.939C2137.39,161.533 2138.7,163.814 2138.11,166.055C2137.62,167.922 2135.93,169.154 2134.1,169.154C2133.74,169.154 2133.38,169.11 2133.02,169.01M2085.56,166.045C2084.97,163.814 2086.3,161.533 2088.51,160.939C2090.73,160.341 2093.01,161.653 2093.6,163.889C2094.19,166.125 2092.87,168.411 2090.65,169.01C2090.3,169.105 2089.94,169.154 2089.58,169.154C2087.76,169.154 2086.06,167.922 2085.56,166.045M2107.97,162.017C2107.97,159.951 2109.57,158.274 2111.58,158.14L2112.1,158.14C2114.11,158.274 2115.71,159.951 2115.71,162.022C2115.71,164.169 2113.97,165.91 2111.84,165.91C2109.71,165.91 2107.97,164.169 2107.97,162.017" style="fill:rgb(130,127,128);fill-rule:nonzero;"/>
                    </g>
                </g>
            </g>
        </g>
    </g>
</svg>
